<?xml version="1.0" encoding="utf-8"?>
<!-- Generator: Adobe Illustrator 19.1.0, SVG Export Plug-In . SVG Version: 6.00 Build 0)  -->
<!DOCTYPE svg PUBLIC "-//W3C//DTD SVG 1.1//EN" "http://www.w3.org/Graphics/SVG/1.1/DTD/svg11.dtd">
<svg version="1.1" id="Layer_1" xmlns="http://www.w3.org/2000/svg" xmlns:xlink="http://www.w3.org/1999/xlink" x="0px" y="0px"
	 width="443.06448px" height="313.2803px" viewBox="0 0 443.06448 313.2803" enable-background="new 0 0 443.06448 313.2803"
	 xml:space="preserve">
<path fill="#454545" d="M141.3145,136.6299l1.0547-0.0845c0.3105-0.02539,0.5439-0.29829,0.5195-0.61029l-0.12891-1.57961
	c-0.0244-0.3145-0.29889-0.54401-0.6084-0.5191l-2.35449-0.00189l-2.54881-5.72411c-0.2701-0.6109-0.9458-1.11629-2.0318-1.11629
	h-7.4975h-7.4981c-1.0859,0-1.7617,0.50539-2.0356,1.11629l-2.5464,5.72411l-2.354,0.00189
	c-0.3086-0.0249-0.583,0.20461-0.6094,0.5191l-0.12701,1.57961c-0.02489,0.312,0.209,0.5849,0.51861,0.61029l1.0547,0.0845
	c-1.1314,1.8755-1.833,3.3564-1.833,5.85251l0.2388,3.0244c0,0.58009,0.4233,1.09279,0.8989,1.355v0.0049v1.5928
	c0.102,2.18449,0.78809,2.18449,2.31879,2.18449c1.52881,0,2.3203,0,2.4229-2.18449v-1.418l9.5508,0.0049l9.4682-0.0025v1.4156
	c0.1021,2.18449,0.78709,2.18449,2.31891,2.18449c1.52829,0,2.3203,0,2.4218-2.18449v-1.59041v-0.00729
	c0.47659-0.26221,0.97859-0.7749,0.97859-1.355l0.2421-3.0244C143.14839,139.9863,142.44629,138.5054,141.3145,136.6299z
	 M122.2568,143.49561c0,0.3145-0.2558,0.56689-0.5654,0.56689h-5.5776c-0.3135,0-0.56741-0.2524-0.56741-0.56689v-2.03951
	c0-0.31689,0.25391-0.5674,0.56741-0.5674l5.5776,0.4536c0.3096,0,0.5654,0.25391,0.5654,0.5654V143.49561z M117.3594,135.5161
	l2.7417-6.30659h7.6177h7.6147l2.74071,6.30659H127.7188H117.3594z M139.8887,143.49561c0,0.3145-0.25391,0.56689-0.56641,0.56689
	h-5.5777c-0.31,0-0.56689-0.2524-0.56689-0.56689v-1.58791c0-0.31149,0.2569-0.5654,0.56689-0.5654l5.5777-0.4536
	c0.3125,0,0.56641,0.2505,0.56641,0.5674V143.49561z"/>
<path fill="#454545" d="M188.01909,136.6299l1.05461-0.0845c0.31059-0.02539,0.54399-0.29829,0.51959-0.61029l-0.12889-1.57961
	c-0.0244-0.3145-0.2989-0.54401-0.6084-0.5191l-2.34821-0.00189v-9.1192c0-1.91261-1.5556-3.4687-3.4697-3.4687h-4.002
	c-0.41211-1.2315-1.74901-2.1402-3.35251-2.1402h-0.51369v-0.4399h-1.12012v1.3623h-0.9892h-0.5596v1.1196h0.5596h0.9892v1.771
	h-0.9892h-0.5596v1.1197h0.5596h0.9892v1.3623h1.12012v-0.43999h0.51369c1.60941,0,2.9502-0.915,3.3584-2.1538h3.9971
	c1.0527,0,1.9072,0.856,1.9072,1.9077v5.6265l-0.9937-2.2314c-0.26999-0.6109-0.9458-1.11629-2.03169-1.11629h-7.4976h-7.498
	c-1.08589,0-1.7617,0.50539-2.0356,1.11629l-2.5464,5.72411l-2.354,0.00189c-0.30859-0.0249-0.58299,0.20461-0.60939,0.5191
	l-0.127,1.57961c-0.0249,0.312,0.209,0.5849,0.5186,0.61029l1.0547,0.0845c-1.13141,1.8755-1.83301,3.3564-1.83301,5.85251
	l0.23871,3.0244c0,0.58009,0.42339,1.09279,0.899,1.355v0.0049v1.5928c0.10201,2.18449,0.78809,2.18449,2.31879,2.18449
	c1.52881,0,2.3203,0,2.4229-2.18449v-1.418l9.5507,0.0049l9.46831-0.0025v1.4156c0.1021,2.18449,0.78709,2.18449,2.31889,2.18449
	c1.52831,0,2.3203,0,2.4218-2.18449v-1.59041v-0.00729c0.47661-0.26221,0.9785-0.7749,0.9785-1.355l0.2422-3.0244
	C189.853,139.9863,189.15091,138.5054,188.01909,136.6299z M168.9614,143.49561c0,0.3145-0.2558,0.56689-0.5654,0.56689h-5.57761
	c-0.31349,0-0.5674-0.2524-0.5674-0.56689v-2.03951c0-0.31689,0.25391-0.5674,0.5674-0.5674l5.57761,0.4536
	c0.3096,0,0.5654,0.25391,0.5654,0.5654V143.49561z M164.064,135.5161l2.7417-6.30659h7.6176h7.61481l2.74069,6.30659h-10.3555
	H164.064z M186.59329,143.49561c0,0.3145-0.25389,0.56689-0.56639,0.56689h-5.57771c-0.31,0-0.56689-0.2524-0.56689-0.56689
	v-1.58791c0-0.31149,0.2569-0.5654,0.56689-0.5654l5.57771-0.4536c0.3125,0,0.56639,0.2505,0.56639,0.5674V143.49561z"/>
<path fill="#454545" d="M324.64359,142.938h-0.09567v-18.9473h0.09567c0.39551,0,0.48141-0.3213,0.48141-0.7192
	c0-0.3965-0.08591-0.7183-0.48141-0.7183h-3.94049v-2.1728c0.6748,0.1894,1.28619,0.4101,1.80182,0.6606
	c0.08789,0.0415,0.18066,0.062,0.27539,0.062c0.2334,0,0.58588-1.0415,0.27338-1.19379
	c-2.02628-0.98151-5.13077-1.54591-8.5224-1.54591c-3.39258,0-6.49808,0.5644-8.52539,1.54591
	c-0.31061,0.1523,0.04291,1.19379,0.27539,1.19379c0.09372,0,0.1875-0.0205,0.27542-0.062
	c0.51559-0.2505,1.12689-0.4712,1.8017-0.6606v2.1728h-3.9404c-0.39752,0-0.4668,0.3218-0.4668,0.7183
	c0,0.3979,0.06927,0.7192,0.4668,0.7192h0.0957v18.9473h-0.0957c-0.39752,0-0.4668,0.32129-0.4668,0.7173
	c0,0.3979,0.06927,0.71919,0.4668,0.71919h3.08691c-0.13773,0.54491-0.38382,0.78911-0.69632,1.1763
	c-0.17868,0.22411-0.17868,0.5381-0.17868,0.5381c0,0.49611,0.40039,0.8969,0.89648,0.8969h0.2529l-2.01761,2.7417v0.62111h2.6875
	l0.36331-0.4902l2.1123-2.8726h7.22659l2.11618,2.8726l0.36234,0.4902h2.68939v-0.62111l-2.02051-2.7417h0.23639
	c0.49609,0,0.89651-0.40079,0.89651-0.8969c0,0,0-0.314-0.1788-0.5381c-0.3125-0.38719-0.55661-0.63139-0.6962-1.1763h3.08688
	c0.39551,0,0.48141-0.32129,0.48141-0.71919C325.125,143.25929,325.03909,142.938,324.64359,142.938z M310.4668,132.813h-4.7207
	v-7.72221h4.7207V132.813z M314.53128,141.2598c-0.86038,0-1.5567-0.69629-1.5567-1.55519s0.69632-1.5547,1.5567-1.5547
	c0.85742,0,1.55563,0.6958,1.55563,1.5547S315.3887,141.2598,314.53128,141.2598z M317.3613,133.9575h-5.66211v-9.9668h5.66211
	V133.9575z M323.31448,132.813h-4.7207v-7.72221h4.7207V132.813z"/>
<g>
	<path fill="#454545" d="M312.7529,187.9346h0.00299c0,0.1933,0.79489,0.34959,1.77631,0.34959c0,0,0.00391,0,0.00778,0
		c0.00201,0,0.00201,0,0.00403,0c0.98428,0,1.7793-0.1563,1.7793-0.34959h0.00089c0,0,0.00299-0.5352,0.1983-0.8614
		c1.90231-3.1787,8.13181-8.9521,8.13181-14.23039c0-5.84961-3.06931-9.91411-10.1123-9.91991c0,0,0,0-0.00201,0
		c-0.00388,0-0.00388,0-0.00778,0c-7.03711,0.0058-10.11029,4.0703-10.11029,9.91991c0,5.27829,6.22949,11.0517,8.13177,14.23039
		C312.74899,187.3994,312.7529,187.9346,312.7529,187.9346z"/>
	<path fill="#454545" d="M312.69919,190.791c-0.4726,0.4727-0.4502,1.12399-0.4502,1.8438c0,0.72951-0.01169,1.3896,0.47171,1.8623
		c0.4697,0.459,1.11038,0.4258,1.81927,0.4258c0.69931,0,1.33112,0.04001,1.79694-0.4073
		c0.5-0.47459,0.49219-1.14059,0.49219-1.8808c0-0.7198,0.02249-1.37109-0.44919-1.8438
		C315.90918,190.3213,313.16699,190.3213,312.69919,190.791z"/>
</g>
<path fill="#454545" d="M231.51759,134.2646c-0.00591-0.0844-0.0215-0.166-0.0293-0.2417c0,0-0.7979-6.7441-0.81351-6.8657
	c-0.10449-0.8423-0.1953-1.22951-0.6494-1.7451c-0.0166-0.0225-0.03999-0.0434-0.06839-0.0752
	c-1.8759-1.7978-5.12109-2.9805-8.82809-2.9805c0,0,0,0-0.00191,0c-3.709,0-6.9532,1.1827-8.8282,2.9805
	c-0.0293,0.0318-0.0527,0.0527-0.0683,0.0752c-0.45221,0.51559-0.543,0.9028-0.6494,1.7451
	c-0.0157,0.1216-0.8116,6.8657-0.8116,6.8657c-0.00781,0.0757-0.0224,0.1573-0.0312,0.2417
	c-0.18069,1.62939-0.1748,2.3951-0.0537,4.3521c0.0078,0.0381,0.87689,6.2822,0.88469,6.3364
	c0,0.00101-0.00189,0.0025-0.00189,0.0034c0,0.19051,0.70599,0.4454,1.9189,0.6758c0.0537,0.59381,0.54689,1.0596,1.1534,1.0596
	h0.8007l-2.23241,3.02101v0.6357h2.75591l0.3701-0.4995l2.332-3.15721h4.9278l2.33,3.15721l0.37019,0.4995h2.7558v-0.6357
	l-2.2314-3.02101h0.80081c0.60829,0,1.09859-0.46629,1.1523-1.0596c1.20509-0.23039,1.90819-0.48289,1.91109-0.6738h0.00391
	c0,0,0.87801-6.3037,0.8848-6.3418C231.6924,136.6597,231.70119,135.894,231.51759,134.2646z M218.95999,128.9438
	c0-0.4404,0.35541-0.79781,0.79781-0.79781H222.5c0.44139,0,0.7988,0.35741,0.7988,0.79781v5.4024
	c0,0.44139-0.35741,0.79739-0.7988,0.79739h-2.7422c-0.4424,0-0.79781-0.356-0.79781-0.79739V128.9438z M212.1494,135.582
	l0.79199-6.644c0-0.49901,0.4053-0.9048,0.9053-0.9048h1.14259h1.75781c0.4404,0,0.7988,0.35739,0.7988,0.79829v1.4561v3.94681
	v1.45549c0,0.44101-0.3584,0.7979-0.7988,0.7979h-1.75781h-1.93359C212.5567,136.48779,212.1494,136.0825,212.1494,135.582z
	 M214.59959,143.06351c-0.81149,0-1.46869-0.65921-1.46869-1.47221c0-0.81099,0.6572-1.46829,1.46869-1.46829
	s1.4707,0.6573,1.4707,1.46829C216.0703,142.4043,215.41109,143.06351,214.59959,143.06351z M227.6572,143.06351
	c-0.81151,0-1.4707-0.65921-1.4707-1.47221c0-0.81099,0.65919-1.46829,1.4707-1.46829c0.8116,0,1.4698,0.6573,1.4698,1.46829
	C229.127,142.4043,228.4688,143.06351,227.6572,143.06351z M229.20119,136.48779h-1.93359h-1.7578
	c-0.44141,0-0.7979-0.35689-0.7979-0.7979v-1.45549v-3.94681v-1.4561c0-0.4409,0.35649-0.79829,0.7979-0.79829h1.7578h1.14259
	c0.5009,0,0.90431,0.40579,0.90431,0.9048l0.791,6.644C230.1055,136.0825,229.70119,136.48779,229.20119,136.48779z"/>
<g>
	<path fill="#454545" d="M284.80179,162.9238c0,0-6.92288-0.1855-12.0889,3.7227c-2.20609,1.666-4.99319,4.87109-7.74609,8.43359
		l0.00198-0.002c-0.89648,1.14461-1.73148,2.05081-3.71777,2.0489h-2.76862c-0.32321,0.0136-0.59079,0.082-0.8652,0.3847
		c-0.01859,0.0235-0.0332,0.041-0.0527,0.06639l-2.68558,3.26961c-0.02541,0.0293-0.04881,0.0546-0.06641,0.082
		c-0.09181,0.12109-0.1152,0.2148,0.1465,0.2578l3.72661,0.57809c1.09958,0.1739,1.16397,0.3282,0.72849,0.9492
		c-0.33011,0.4864-0.95319,1.3965-0.97171,1.42c-0.18948,0.27341,0.75101,1.5547,2.16992,2.9785
		c1.42578,1.42191,2.707,2.3613,2.98148,2.17191c0.02341-0.01761,0.93161-0.64261,1.41791-0.9747
		c0.62109-0.4335,0.77539-0.36909,0.94922,0.7305l0.57819,3.72659c0.04291,0.2617,0.13861,0.23831,0.2597,0.14841
		c0.0235-0.01759,0.05078-0.043,0.08011-0.0683l3.27148-2.68361c0.02441-0.01959,0.04391-0.03519,0.0654-0.0528
		c0.30179-0.27539,0.37112-0.54289,0.3848-0.8672v-2.7675c-0.0029-1.98639,0.90433-2.8203,2.04691-3.7188l-0.00198,0.002
		c3.5625-2.75,6.77048-5.541,8.43649-7.7442C284.9902,169.8477,284.80179,162.9238,284.80179,162.9238z M277.35059,174.0293
		c-1.00778,1.00591-2.6416,1.00391-3.64938-0.00389c-1.00781-1.00591-1.0108-2.64061-0.00201-3.64841
		c1.0098-1.0098,2.6416-1.0079,3.6514,0.00191C278.35739,171.3887,278.35941,173.0195,277.35059,174.0293z"/>
	<path fill="#454545" d="M261.09769,191.3887c-2.09378,1.664-4.83789,1.3945-6.14159,1.3808
		c-0.01271-1.3027-0.28319-4.0468,1.3828-6.14059c0.16211-0.1582,0.1445-0.42581-0.02829-0.59961
		c-0.17291-0.1758-0.44241-0.1875-0.60062-0.0273c-3.2227,2.4472-2.89749,8.91209-2.89749,8.91209s6.4649,0.32611,8.91309-2.8965
		c0.15921-0.15819,0.14651-0.4278-0.0293-0.60159C261.52438,191.24409,261.25589,191.22659,261.09769,191.3887z"/>
</g>
<g>
	<path fill="#454545" d="M183.1895,178.21091l-3.6348-2.42961l-2.29391-4.64259c-0.50879-1.0313-0.959-1.62891-1.92679-1.8438
		c-0.75-0.166-1.49609,0.01959-2.0811,0.43559c-0.0166,0.0117-0.03511,0.0215-0.0507,0.0332l-5.4366,4.30659
		c-0.22069,0.1777-0.375,0.4277-0.43359,0.70511l-1.04291,5.01759c-0.1348,0.6562,0.28711,1.2988,0.9453,1.4355
		c0.08301,0.01759,0.166,0.02541,0.2471,0.02541c0.56441,0,1.06931-0.3945,1.18842-0.96681l0.95219-4.58589l1.94139-1.53711
		c0,0-1.2549,5.66011-1.2549,5.664l-1.4902,6.71881l-3.45509,5.74609c-0.49319,0.8222-0.22661,1.8867,0.5937,2.3808
		c0.28029,0.168,0.5889,0.25,0.89259,0.25c0.5869,0,1.16411-0.3008,1.48831-0.8418l3.60249-5.9882
		c0.0957-0.1602,0.16609-0.336,0.2061-0.51759l1.0146-4.58011l3.84769,4.44341l1.20021,6.08391
		c0.1631,0.82619,0.8896,1.40039,1.7012,1.40039c0.1113,0,0.22459-0.0117,0.33879-0.0332c0.9395-0.1855,1.5508-1.0976,1.3653-2.039
		l-1.28809-6.53709c-0.0576-0.295-0.19241-0.5704-0.3916-0.7989l-4.4209-5.10739l1.1279-5.03911l0.87889,1.77931
		c0.0957,0.19339,0.2373,0.3555,0.4151,0.47459l3.9062,2.6075c0.5576,0.373,1.31349,0.2226,1.68359-0.336
		C183.8994,179.33591,183.74809,178.58009,183.1895,178.21091z"/>
	<circle fill="#454545" cx="176.1221" cy="165.64059" r="2.6035"/>
</g>
<path fill="#454545" d="M94.6162,129.8252h-1.372v-8.34669c0,0,0-0.0146,0-0.0303c0-0.0087,0-0.0078,0-0.0332
	c0-0.1377-0.0206-0.5048-0.4507-0.7968c-0.4292-0.293-1.2857-0.5586-2.1172-0.6944c-0.8316-0.1338-2.71391-0.6806-9.6572-0.6806
	c-0.002,0-0.0049,0-0.0059,0c-0.002,0-0.0039,0-0.0059,0c-6.94331,0-8.82661,0.5468-9.6572,0.6806
	c-0.834,0.1358-1.689,0.40141-2.1196,0.6944c-0.4292,0.292-0.4522,0.6591-0.4522,0.7968c0,0.0039,0,0.0039,0,0.0069
	c0,0.0517,0,0.0625,0,0.0517v8.35159h-1.3691c-0.2534,0-0.459,0.20511-0.459,0.46091v5.04199c0,0.2549,0.2056,0.46001,0.459,0.46001
	h1.3691v11.7549c0,0.25391,0.2061,0.4599,0.461,0.4599h0.4839v1.0977c0,1.62891,1.2114,1.543,2.7353,1.543
	c1.5259,0,2.7803,0.08591,2.7803-1.543v-1.02251h5.7685h0.0118h5.7675v1.02251c0,1.62891,1.2544,1.543,2.7813,1.543
	c1.5239,0,2.73779,0.08591,2.73779-1.543v-1.0977h0.4814c0.25391,0,0.4571-0.20599,0.4571-0.4599v-11.7549h1.372
	c0.253,0,0.46-0.20511,0.46-0.46001v-5.04199C95.07619,130.0303,94.86919,129.8252,94.6162,129.8252z M75.3291,122.1455h5.6782
	h0.0118h5.6762v3.6758h-5.6762h-0.0127h-5.6773V122.1455z M76.5659,143.8477c0,0.3007-0.25,0.5488-0.55611,0.5488H71.252
	c-0.3033,0-0.5518-0.24809-0.5518-0.5488v-1.6573c0-0.3056,0.2485-0.5556,0.5518-0.5556h4.7578
	c0.30611,0,0.55611,0.25,0.55611,0.5556V143.8477z M91.3247,143.8477c0,0.3007-0.25,0.5488-0.5503,0.5488h-4.7578
	c-0.30611,0-0.55611-0.24809-0.55611-0.5488v-1.6573c0-0.3056,0.25-0.5556,0.55611-0.5556h4.7578
	c0.3003,0,0.5503,0.25,0.5503,0.5556V143.8477z M91.3247,137.6123c0,0.2549-0.207,0.45999-0.459,0.45999h-19.706
	c-0.253,0-0.4595-0.20509-0.4595-0.45999v-8.5654c0-0.25591,0.2065-0.46001,0.4595-0.46001h19.706
	c0.252,0,0.459,0.2041,0.459,0.46001V137.6123z"/>
<path fill="#454545" d="M134.5195,165.24409c0.24519,0.2442,0.58299,0.39461,0.95509,0.39461c0.75,0,1.3584-0.60941,1.3584-1.35741
	c0-0.75-0.6084-1.3575-1.3584-1.3575s-1.3584,0.6075-1.3584,1.3575c0,0.08591,0.0108,0.16991,0.0264,0.25191l-2.291,1.8652
	c-0.0703,0.05859-0.11819,0.1368-0.13669,0.22659l-0.20511,0.9863c-0.5811-0.0527-1.2412-0.1386-1.5977-0.43939
	c-0.62599-0.52541-1.1709-1.29691-2.1904-1.29691H127.71c-1.0205,0-1.5635,0.7715-2.1885,1.29691
	c-0.3545,0.3008-1.0117,0.3828-1.5918,0.4375l-0.21-0.98441c-0.0175-0.0898-0.0664-0.168-0.1367-0.22659l-2.289-1.8652
	c0.01559-0.082,0.0244-0.16411,0.0244-0.25191c0-0.75-0.60749-1.3575-1.35649-1.3575c-0.75,0-1.35741,0.6075-1.35741,1.3575
	c0,0.748,0.60741,1.35741,1.35741,1.35741c0.37209,0,0.709-0.15041,0.95509-0.39461l2.0596,1.6797l0.1601,0.7715
	c-0.0927,0.01561-0.17279,0.03711-0.2314,0.06061c-0.1045,0.0488-0.1602,0.19919-0.1885,0.373l-3.0635,0.31059
	c-0.23239,0.02341-0.4033,0.23241-0.3799,0.4648c0.02251,0.2187,0.2061,0.3848,0.4239,0.3848c0.0127,0,0.0273-0.002,0.041-0.002
	l2.97661-0.3008c0.05169,0.6543,0.44719,0.53911,2.41109,0.5723c0.9385,0.01761,0.8301,0.07231,0.99509,0.2402
	c0.165,0.16211,0.1729,0.5528,0.1729,0.5528c-0.8125,0.13861-1.8096,0.373-2.5079,0.7617
	c-1.3828,0.77541-1.3671,1.6133-1.5644,3.67191c-0.1963,2.0546-0.22359,4.082-0.2471,4.60539
	c-0.01659,0.44531,0.0586,4.211,0.1006,5.06841c0.0703,1.4902-0.0439,1.5508,0.63971,2.05659
	c0.44529,0.3262,1.01659,0.7617,2.18259,0.9239c0.19141,0.0253,0.36909,0.0468,0.5488,0.06641v0.8515h0.0117
	c0.0293,0.252,0.3447,0.47459,0.82619,0.625v4.49609c0,0.7988,0.6475,1.4453,1.4453,1.4453c0.7969,0,1.44529-0.6465,1.44529-1.4453
	v-4.50191c0.46971-0.15039,0.77641-0.36919,0.8047-0.61919h0.01071v-0.8535c0.17879-0.01761,0.35449-0.03911,0.54399-0.06441
	c1.166-0.1622,1.7363-0.5977,2.18071-0.9239c0.68748-0.5058,0.56929-0.56639,0.64349-2.05659
	c0.03909-0.85741,0.1162-4.62309,0.0977-5.06841c-0.01961-0.52339-0.0489-2.5508-0.24611-4.60539
	c-0.1973-2.05861-0.18069-2.8965-1.56349-3.67191c-0.6963-0.3887-1.6953-0.62309-2.5098-0.7617c0,0,0.00879-0.39069,0.17389-0.5528
	c0.16211-0.16789,0.0556-0.2226,0.99611-0.2402c1.9619-0.03319,2.35739,0.082,2.4082-0.5723l2.98138,0.3008
	c0.01462,0,0.02931,0.002,0.04391,0.002c0.2168,0,0.40039-0.16609,0.42389-0.3848c0.02341-0.23239-0.14749-0.44139-0.3819-0.4648
	l-3.06729-0.31059c-0.02931-0.17581-0.08311-0.3242-0.18851-0.373c-0.0567-0.0235-0.1367-0.043-0.22849-0.05861l0.16109-0.7735
	L134.5195,165.24409z M127.7178,169.752c-0.9053,0-1.6387-0.7325-1.6387-1.6387c0-0.9043,0.73341-1.6387,1.6387-1.6387
	s1.63869,0.73441,1.63869,1.6387C129.35649,169.0195,128.62309,169.752,127.7178,169.752z"/>
<path fill="#454545" d="M373.95309,139.5601v-0.93611c0-0.83049-0.89841-1.52539-1.63962-2.04489
	c-0.1055-0.07671-0.20898-0.146-0.30368-0.21339l-6.5498-4.56781l0,0c-2.2305-1.5567-2.2305-2.6348-2.2305-4.1587v-5.7393
	c0-1.09721-0.89059-3.5439-1.9873-3.5439c-1.0947,0-1.98538,2.44669-1.98538,3.5439v5.7393c0,1.5239,0,2.602-2.23141,4.1587l0,0
	l-6.5488,4.56781c-0.09479,0.0674-0.1983,0.13669-0.30469,0.21339c-0.73932,0.5195-1.6387,1.2144-1.6387,2.04489v0.93611
	c0,0.10049-0.00491,0.2002,0,0.2934c0.0098,0.2744,0.0947,0.46001,0.58008,0.29491l10.14352-3.47951v6.93221
	c-0.0029,1.5766-0.05371,1.82759-1.00681,2.60449l-0.43262,0.34761c-0.0029,0.002-0.00488,0.002-0.00488,0.00439
	c0,0-0.00391,0.0025-0.00491,0.0025l-1.5195,1.2124c-0.0293,0.0239-0.05859,0.04439-0.08499,0.06639
	c-0.18552,0.1479-0.31641,0.28461-0.31641,0.67531v1.2851c0,0.52879,0,0.66409,0.42191,0.4761l4.93069-2.1826
	c0.0029,0,0.0029,0,0.0029,0c0.00201,0,0.00201,0,0.00201,0l4.9335,2.1826c0.42288,0.18799,0.42288,0.05269,0.42288-0.4761v-1.2851
	c0-0.3907-0.13181-0.5274-0.31839-0.67531c-0.02728-0.022-0.0556-0.0425-0.08301-0.06639l-1.52148-1.2124l-0.00391-0.0025
	c0-0.0024-0.00189-0.0024-0.00482-0.00439l-0.43359-0.34761c-0.95218-0.7769-1.00589-1.02789-1.00589-2.60449v-6.93221
	l10.1445,3.47951c0.48639,0.1651,0.5694-0.02051,0.5791-0.29491C373.95798,139.7603,373.95309,139.6606,373.95309,139.5601z"/>
<g>
	<path fill="#454545" d="M347.2305,171.168c0.06149,0,0.12198-0.00391,0.18448-0.01959l12.3067-2.7187v1.28909l-6.64059,3.46091
		c-0.29401,0.1543-0.47949,0.46089-0.47949,0.793v1.27339h1.7861v-0.7305l6.85159-3.57219l6.9209,3.57419v0.7285h1.78711v-1.27339
		c0-0.334-0.1875-0.6407-0.48239-0.793l-6.7012-3.46091v-1.961l12.58008-2.7793c0.4599-0.1015,0.74802-0.5547,0.6474-1.0137
		c-0.1015-0.457-0.55759-0.746-1.01559-0.64639l-8.66409,1.914l-0.1904-0.85541c-0.03711-0.17-0.20612-0.2793-0.37689-0.2422
		l-2.03912-0.2012l-6.20798,1.37111l-1.7627,1.03909c-0.16992,0.039-0.27832,0.20891-0.24323,0.37891l0.19141,0.85739
		l-8.63568,1.9082c-0.45801,0.1015-0.7471,0.55661-0.64651,1.0137C346.4902,170.89841,346.8399,171.168,347.2305,171.168z"/>
	<path fill="#454545" d="M374.83499,175.873c-0.0498-0.3593-0.3584-0.625-0.72171-0.625h-12.87009h-12.87012
		c-0.36429,0-0.67188,0.2657-0.71979,0.625l-1.27338,9.10941c-0.01071,0.06639-0.01071,0.1348,0,0.20309l1.27338,9.1114
		c0.04791,0.35939,0.3555,0.62689,0.71979,0.62689h12.87012h12.87009c0.36331,0,0.67191-0.2675,0.72171-0.62689l1.27148-9.1114
		c0.0097-0.0683,0.0097-0.1367,0-0.20309L374.83499,175.873z M355.21289,184.24409c-0.02731,0.28131-0.2666,0.49811-0.55371,0.49811
		h-5.5488c-0.3067,0-0.5567-0.24611-0.5567-0.5567c0-0.0195,0.92972-6.7011,0.92972-6.7011
		c0.05179-0.252,0.27829-0.44341,0.54489-0.44341h4.62891c0.30569,0,0.55569,0.24809,0.55569,0.5567V184.24409z M365.48441,184.1855
		c0,0.3067-0.24902,0.5567-0.55762,0.5567h-7.36819c-0.30762,0-0.55762-0.25-0.55762-0.5567v-6.5878
		c0-0.30861,0.25-0.5567,0.55762-0.5567h7.36819c0.30859,0,0.55762,0.24809,0.55762,0.5567V184.1855z M373.35648,184.7422h-5.54788
		c-0.2861,0-0.52731-0.2168-0.55569-0.49811v-6.64639c0-0.30861,0.24908-0.5567,0.55768-0.5567h4.6279
		c0.26852,0,0.49323,0.19141,0.54691,0.44341c0,0,0.9277,6.68159,0.9277,6.7011
		C373.91309,184.49609,373.66498,184.7422,373.35648,184.7422z"/>
</g>
<g>
	<path fill="#454545" d="M220.73099,169.16209c1.27492,0.332,2.57661-0.43159,2.90671-1.7041
		c0.334-1.27339-0.4277-2.5752-1.69971-2.90919c-1.27539-0.332-2.57909,0.4317-2.9072,1.7041
		C218.6973,167.52831,219.45459,168.8262,220.73099,169.16209z"/>
	<path fill="#454545" d="M220.47119,185.43851l0.5,2.49699c0.05661-0.0937,0.1172-0.1855,0.1523-0.2919l1.54642-4.6358h-2.86621
		l-0.19679,0.5957l0.7007,1.3643C220.3833,185.1162,220.43799,185.2744,220.47119,185.43851z"/>
	<path fill="#454545" d="M231.2529,183.1758c-0.6562,0-1.28511,0.1113-1.875,0.3125l-1.3369-4.61819
		c-0.0742-0.24611-0.29881-0.414-0.5527-0.414h-1.4727c-0.08591-0.1407-0.19231-0.2657-0.3369-0.3614l-2.98531-1.93649
		l-1.01909-4.96091c0,0-0.00781-0.0215-0.02339-0.0528c-0.15822-0.6425-0.56451-1.2187-1.19731-1.54491
		c-0.63031-0.32619-1.33881-0.332-1.9516-0.09369c-0.01181,0.00389-0.0235,0.00969-0.0352,0.0136
		c-0.5078,0.20709-0.95311,0.58009-1.22661,1.1055l-3.6738,7.12891c-0.3779,0.72949-0.3389,1.56349,0.0244,2.2334
		c-0.22749-0.02541-0.40909,0.03909-0.5361,0.10739c-0.209,0.11531-0.55659,0.41411-0.09569,1.10161
		c0.45999,0.68849,0.9111,0.63179,1.43309,0.63179l0.53421-0.08789h0.15819l0.2695,0.5235l-1.3203,1.7578
		c-0.88719-0.541-1.92578-0.85941-3.03909-0.85941c-3.23531,0-5.86621,2.63181-5.86621,5.8652s2.63091,5.8653,5.86621,5.8653
		c2.4859,0,4.6109-1.55759,5.4644-3.7471l2.03709,0.56841l0.00591,0.04291c0.1308,0.6465,0.6967,1.0938,1.33099,1.0938
		c0.08791,0,0.1797-0.0098,0.26761-0.0274c0.73779-0.14639,1.21239-0.86319,1.06589-1.59959l-0.0625-0.31641l6.77692-7.7861
		l-0.56252-1.7148h-8.8418l0.59131,1.14841h7.78169l-6.03069,6.9297l-0.79062-3.9561c-0.02339-0.123-0.06439-0.2422-0.123-0.3535
		l-2.30759-4.48831l0.62109,0.26761h5.0224c-0.0351-0.49409-0.33591-0.9473-0.8154-1.1523l-3.72661-1.60161l1.50491-2.9209
		l0.0215-0.0508l0.3765,1.836c0.0625,0.291,0.2363,0.5468,0.4882,0.71091l3.37549,2.1904
		c0.1875,0.12109,0.3985,0.17969,0.6055,0.17969c0.3652,0,0.72461-0.17969,0.93262-0.5078
		c0.00589-0.0098,0.00589-0.0215,0.01369-0.0313h1.03709l1.26561,4.3624c-1.7558,1.0166-2.9424,2.9111-2.9424,5.082
		c0,3.2373,2.63579,5.873,5.875,5.873c3.23929,0,5.875-2.6357,5.875-5.873C237.1279,185.81149,234.49219,183.1758,231.2529,183.1758
		z M210.9946,193.7451c-2.60251,0-4.7182-2.1172-4.7182-4.7178c0-2.60049,2.11569-4.7168,4.7182-4.7168
		c0.8555,0,1.646,0.2471,2.3394,0.6456l-2.7988,3.72749c-0.1153,0.15041-0.14551,0.34961-0.08501,0.52931
		c0.06349,0.17969,0.20799,0.31639,0.39011,0.36909l4.5069,1.25391C214.63719,192.54201,212.95509,193.7451,210.9946,193.7451z
		 M215.63869,189.72659l-3.68019-1.02539l2.2998-3.06551c0.89061,0.85941,1.45461,2.05861,1.45461,3.3916
		C215.71291,189.26759,215.67479,189.49609,215.63869,189.72659z M218.24219,190.4512l-1.478-0.4102
		c0.05861-0.33009,0.09572-0.668,0.09572-1.0137c0-1.70799-0.73981-3.2431-1.90921-4.3154l0.9868-1.31149l1.46289,2.84859
		L218.24219,190.4512z M231.2529,193.7744c-2.6064,0-4.72551-2.12109-4.72551-4.7236c0-1.6436,0.84761-3.0928,2.125-3.93849
		l0.64351,2.22459c0.79489,2.0947,1.6875,2.2803,1.94139,2.2881c0.00391,0,0.0117,0,0.01561,0
		c0.3125,0,0.6075-0.2422,0.61719-0.5547c0.00981-0.3183-0.19919-0.5762-0.51759-0.584c-0.0058-0.00189-0.457-0.1738-0.9648-1.5127
		l-0.6855-2.3652c0.4882-0.1709,1.0058-0.2822,1.5507-0.2822c2.60449,0,4.72659,2.1181,4.72659,4.72459
		C235.97949,191.65331,233.85739,193.7744,231.2529,193.7744z"/>
</g>
<path fill="#454545" d="M278.36819,135.5649c-0.32028-2.6635-1.14651-7.4619-1.44528-9.16209
	c-0.07623-0.4463-0.30371-0.8159-0.45801-0.9931l-0.00491-0.0059c-1.09381-1.2441-2.74808-2.2017-4.7012-2.6899l1.6738-1.6739
	c0.793,0.3741,1.49911,0.8457,2.0752,1.3999c0.15042,0.1446,0.3428,0.2159,0.53912,0.2159c0.20309,0,0.40918-0.0791,0.56149-0.2393
	c0.29788-0.30859,0.28711-0.80219-0.02341-1.10159c-1.84479-1.7724-4.62891-2.8027-7.64551-2.8335h-0.13678h-0.13672
	c-3.01758,0.0308-5.7998,1.0611-7.64548,2.8335c-0.31052,0.2994-0.32132,0.793-0.0224,1.10159
	c0.15128,0.1602,0.35638,0.2393,0.56149,0.2393c0.19431,0,0.3877-0.0713,0.53708-0.2159
	c0.57712-0.55421,1.28223-1.0258,2.07523-1.3999l1.67477,1.6739c-1.95309,0.4882-3.60648,1.4458-4.7002,2.6899l-0.00589,0.0059
	c-0.15619,0.1772-0.3808,0.5468-0.45889,0.9931c-0.29791,1.7002-1.125,6.4986-1.44342,9.16209
	c-0.418,3.51271,0.13773,7.668,0.51172,8.84381c0.41989,1.31099,0.58109,2.3857,0.58109,2.3857
	c0.02051,0.15289,0.93652,0.295,2.41992,0.3941l-1.94241,2.63229v0.582h2.5195l0.3399-0.45801l1.94141-2.6279
	c0.96869,0.02641,2.0322,0.0415,3.15527,0.0415h0.03802h0.03809c1.12311,0,2.18661-0.01509,3.15631-0.0415l1.93939,2.6279
	l0.3399,0.45801h2.5195v-0.582l-1.94241-2.63229c1.48541-0.09911,2.40042-0.24121,2.4209-0.3941c0,0,0.16022-1.07471,0.58112-2.3857
	C278.22949,143.23289,278.7861,139.07761,278.36819,135.5649z M265.78128,120.4443c0.94232-0.2617,1.95502-0.4028,2.98822-0.4057
	c0.00101,0,0.01758,0,0.0332,0c0.01569,0,0.03229,0,0.0332,0c1.03329,0.0029,2.04688,0.144,2.9874,0.4057l-1.9541,1.958
	c-0.33792-0.0297-0.68069-0.0449-1.02841-0.0459h-0.03809h-0.03802c-0.34769,0.001-0.69049,0.0162-1.02838,0.0459
	L265.78128,120.4443z M263.95508,126.0991l0.23343-1.0498c0.02438-0.1103,0.13959-0.2095,0.25098-0.2202
	c0,0,2.38962-0.2041,4.36322-0.2041c1.97369,0,4.36139,0.2041,4.36139,0.2041c0.11331,0.0107,0.22849,0.1099,0.2529,0.2202
	l0.2334,1.0498c0.02252,0.1104-0.0498,0.1944-0.1611,0.1846c0,0-2.71289-0.207-4.68658-0.207c-1.9736,0-4.6875,0.207-4.6875,0.207
	C264.00491,126.2935,263.93259,126.2095,263.95508,126.0991z M262.1348,146.082c-0.5459,0-0.98929-0.44279-0.98929-0.98869
	c0-0.5464,0.44339-0.9893,0.98929-0.9893s0.9892,0.4429,0.9892,0.9893C263.12399,145.63921,262.68069,146.082,262.1348,146.082z
	 M265.31448,143.0132L265.31448,143.0132l-3.13089-0.2944c-0.3848,0-0.6973-0.3111-0.6973-0.6973l-0.1904-1.6143
	c-0.00391-0.0078-0.00391-0.0141-0.00391-0.0219c-0.0098-0.1402,0.06931-0.1402,0.2139-0.1402h1.6347
	c0.06061,0,0.125,0,0.15631,0.0899c0.0029,0.00529,0.00488,0.0107,0.00488,0.019c0.14349,0.4409,0.56149,0.7612,1.0517,0.7612
	c0.0918,0,0.17972-0.0112,0.26761-0.03461c0.12701-0.0293,0.2207-0.0816,0.26859,0.0473
	c0.0029,0.002,0.00391,0.00639,0.00391,0.00931l0.5791,1.71089c0,0.002,0,0.004,0,0.004
	C265.50879,142.95799,265.42578,143.0239,265.31448,143.0132z M272.29199,143.0132L272.29199,143.0132
	c-0.11331,0.0107-0.19531-0.05521-0.16019-0.1611c0,0,0-0.002,0-0.004l0.57819-1.71089c0-0.00291,0.0029-0.00731,0.00491-0.00931
	c0.0488-0.12891,0.14249-0.0766,0.26849-0.0473c0.08688,0.02341,0.17679,0.03461,0.27051,0.03461
	c0.48828,0,0.90527-0.3203,1.0488-0.7612c0-0.0083,0.00198-0.0137,0.00488-0.019c0.03131-0.0899,0.0957-0.0899,0.15631-0.0899
	h1.63568c0.14462,0,0.22372,0,0.21292,0.1402c0,0.0078,0,0.0141-0.00491,0.0219l-0.18939,1.6143
	c0,0.3862-0.31061,0.6973-0.6973,0.6973L272.29199,143.0132z M275.4707,146.082c-0.54492,0-0.9902-0.44279-0.9902-0.98869
	c0-0.5464,0.44528-0.9893,0.9902-0.9893c0.54788,0,0.9902,0.4429,0.9902,0.9893
	C276.46091,145.63921,276.01859,146.082,275.4707,146.082z M275.8399,136.72121c0,0-0.05081-0.00781-0.07721-0.0137
	c-1.32031-0.23041-3.96289-0.3862-6.95999-0.38721c-2.99701,0.00101-5.64062,0.1568-6.96191,0.38721
	c-0.02631,0.00589-0.0752,0.0137-0.0752,0.0137c-1.0556,0.18019-0.8642-0.75101-0.8183-1.09911h0.00391l0.74799-6.3037
	c0.03232-0.2061,0.01572-1.12801,1.14072-1.2041c0.86517-0.0611,3.82507-0.26421,5.9628-0.2666
	c2.1377,0.0024,5.0957,0.20551,5.9639,0.2666c1.12308,0.0761,1.10651,0.998,1.14059,1.2041l0.74908,6.3037h0.00092
	C276.7041,135.9702,276.89551,136.9014,275.8399,136.72121z"/>
<path fill="#454545" d="M94.728,188.58009v-4.0215c0-0.9346-0.01409-3.16409-2.37009-3.80569l-1.29291-5.89549
	c-0.2354-1.084-0.6368-2.31831-2.95809-2.31831H83.9966V170.793h-5.9668v1.74609h-4.10941c-2.3222,0-2.7226,1.23431-2.959,2.31831
	l-1.2929,5.89549c-2.3555,0.6416-2.36919,2.87109-2.36919,3.80569v4.0215c-0.2099,0.1875-0.3457,0.45311-0.3457,0.75781v0.3418
	c0,0.5703,0.46,1.0312,1.0322,1.0312h0.80669v1.9258c0.1035,2.28709,0.71391,2.28709,2.31641,2.28709
	c1.60059,0,2.21001,0,2.3154-2.28709v-1.9258h15.1768v1.32619v0.59961c0.1055,2.28709,0.7139,2.28709,2.3154,2.28709
	c1.6035,0,2.2129,0,2.3193-2.28709v-0.59961v-1.32619h0.8067c0.5703,0,1.0303-0.46091,1.0303-1.0312v-0.3418
	C95.0728,189.0332,94.937,188.76759,94.728,188.58009z M72.8677,175.582c0.1855-0.8476,0.6504-1.02541,1.5205-1.02541h13.251
	c0.8701,0,1.3349,0.17781,1.5205,1.02541l1.0117,4.6192c-1.95219-0.416-5.35549-0.69341-9.15919-0.69341
	c-3.8027,0-7.206,0.2774-9.1572,0.69341L72.8677,175.582z M70.0864,184.63091c-0.7646,0-1.3828-0.6192-1.3828-1.38481
	c0-0.76369,0.6182-1.3848,1.3828-1.3848c0.7647,0,1.3838,0.62111,1.3838,1.3848
	C71.4702,184.0117,70.8511,184.63091,70.0864,184.63091z M74.17139,184.63091c-0.76369,0-1.3848-0.6192-1.3848-1.38481
	c0-0.76369,0.6211-1.3848,1.3848-1.3848c0.7656,0,1.3857,0.62111,1.3857,1.3848
	C75.5571,184.0117,74.937,184.63091,74.17139,184.63091z M87.855,184.63091c-0.76469,0-1.3848-0.6192-1.3848-1.38481
	c0-0.76369,0.6201-1.3848,1.3848-1.3848c0.7646,0,1.3848,0.62111,1.3848,1.3848
	C89.2398,184.0117,88.6196,184.63091,87.855,184.63091z M91.9409,184.63091c-0.7656,0-1.3847-0.6192-1.3847-1.38481
	c0-0.76369,0.6191-1.3848,1.3847-1.3848c0.76469,0,1.3828,0.62111,1.3828,1.3848
	C93.3237,184.0117,92.7056,184.63091,91.9409,184.63091z"/>
</svg>
